<?xml version="1.0" encoding="UTF-8"?>
<svg id="Layer_1" xmlns="http://www.w3.org/2000/svg" viewBox="0 0 1917.56 737.75">
  <defs>
    <style>
      .cls-1 {
        fill: #e42226;
      }
    </style>
  </defs>
  <g>
    <circle class="cls-1" cx="1692.64" cy="226.88" r="24.29"/>
    <circle class="cls-1" cx="223.76" cy="226.88" r="24.24" transform="translate(-94.89 224.67) rotate(-45)"/>
    <path class="cls-1" d="M738.11,202.75h-75.99v199.52h75.99c61.32,0,98.88-41.37,98.88-99.76s-37.56-99.77-98.88-99.77ZM737.52,354.15h-25.53v-103.28h25.53c31.98,0,48.12,22.59,48.12,51.64s-16.14,51.64-48.12,51.64Z"/>
    <path class="cls-1" d="M937.27,202.75h-88.5l15.74,26.11v173.41h49.88v-69.83h22.89c39.91,0,67.49-24.36,67.49-64.85s-27.58-64.84-67.49-64.84ZM936.69,284.32h-22.3v-33.45h22.3c9.69,0,16.72,5.87,16.72,16.72s-7.04,16.72-16.72,16.72Z"/>
    <polygon class="cls-1" points="1567.41 402.27 1617.29 402.27 1617.29 346.71 1617.29 276.16 1567.41 276.16 1567.41 402.27"/>
    <polygon class="cls-1" points="573.26 315.42 499.32 202.75 454.43 202.75 454.43 402.27 504.3 402.27 504.3 300.75 573.26 402.27 623.13 402.27 623.13 202.75 573.26 202.75 573.26 315.42"/>
    <polygon class="cls-1" points="350.76 324.75 411.79 324.75 411.79 277.75 300.89 277.75 300.89 402.27 417.66 402.27 417.66 354.15 350.76 354.15 350.76 324.75"/>
    <polygon class="cls-1" points="1455.84 315.42 1381.89 202.75 1337.01 202.75 1337.01 402.27 1386.89 402.27 1386.89 300.75 1455.84 402.27 1505.72 402.27 1505.72 202.75 1455.84 202.75 1455.84 315.42"/>
    <polygon class="cls-1" points="1234.6 202.75 1250.34 228.86 1250.34 402.27 1300.22 402.27 1300.22 312.8 1300.22 202.75 1250.34 202.75 1234.6 202.75"/>
    <path class="cls-1" d="M1123.83,199.52c-56.88,0-102.99,46.11-102.99,102.99s46.11,102.99,102.99,102.99,102.99-46.11,102.99-102.99-46.11-102.99-102.99-102.99ZM1123.83,355.49c-29.26,0-52.98-23.72-52.98-52.98s23.72-52.98,52.98-52.98,52.98,23.72,52.98,52.98-23.72,52.98-52.98,52.98Z"/>
    <path class="cls-1" d="M1529.09,202.75v48.12h125.66c-4.41-6.94-6.99-15.16-6.99-23.99s2.62-17.15,7.08-24.13h-125.75Z"/>
    <path class="cls-1" d="M268.64,226.88c0,8.83-2.59,17.05-6.99,23.99h156.02v-48.12h-156.11c4.46,6.97,7.08,15.24,7.08,24.13Z"/>
  </g>
  <g>
    <circle cx="1324.65" cy="473" r="6.99"/>
    <path d="M830.06,489.68c-1.57-1.84-3.34-3.49-5.54-4.7-3.16-1.75-6.79-2.63-10.89-2.63-4.84,0-9.22,1.25-13.13,3.75-3.91,2.49-7,5.85-9.28,10.05-2.27,4.21-3.4,8.97-3.4,14.25s1.13,9.93,3.4,14.14c2.27,4.21,5.36,7.54,9.28,9.99,3.91,2.46,8.29,3.69,13.13,3.69,4.1,0,7.75-.88,10.95-2.63,2.19-1.19,3.94-2.8,5.48-4.61v6.12h12.29v-53.64h-12.29v6.21ZM826.65,522.02c-2.79,3.05-6.47,4.58-11.01,4.58-2.97,0-5.6-.69-7.88-2.06-2.27-1.38-4.06-3.3-5.37-5.76-1.3-2.46-1.96-5.29-1.96-8.49s.65-6.04,1.96-8.49c1.3-2.46,3.09-4.37,5.37-5.76,2.27-1.37,4.9-2.06,7.88-2.06s5.72.69,7.99,2.06c2.27,1.38,4.04,3.3,5.31,5.76,1.26,2.46,1.9,5.29,1.9,8.49,0,4.76-1.4,8.68-4.19,11.73Z"/>
    <path d="M566.48,514.09c0,3.95-.95,6.98-2.85,9.1-1.9,2.13-4.64,3.18-8.21,3.18-2.31,0-4.31-.48-5.98-1.45-1.67-.97-2.95-2.36-3.8-4.19-.85-1.83-1.28-4.04-1.28-6.65v-30.62h-12.29v31.17c0,4.62.99,8.7,2.96,12.24,1.97,3.54,4.73,6.31,8.27,8.32,3.54,2.01,7.58,3.02,12.13,3.02s8.68-.99,12.18-2.96c3.5-1.97,6.24-4.73,8.21-8.27,1.97-3.54,2.96-7.66,2.96-12.35v-31.17h-12.3v30.62Z"/>
    <path d="M670.76,486.04c-4.25-2.46-9.01-3.68-14.3-3.68s-9.94,1.25-14.19,3.75c-4.25,2.49-7.62,5.83-10.11,9.99-2.5,4.17-3.75,8.87-3.75,14.09s1.25,9.94,3.75,14.19c2.49,4.25,5.87,7.62,10.11,10.11,4.25,2.5,8.98,3.75,14.19,3.75s10.06-1.25,14.3-3.75c4.25-2.49,7.62-5.86,10.11-10.11s3.75-8.97,3.75-14.19-1.25-9.93-3.75-14.14c-2.49-4.21-5.87-7.54-10.11-10ZM670.03,518.56c-1.3,2.46-3.13,4.38-5.47,5.76-2.35,1.38-5.05,2.06-8.1,2.06s-5.64-.68-7.98-2.06c-2.35-1.37-4.17-3.29-5.48-5.76-1.3-2.46-1.96-5.25-1.96-8.38s.65-5.88,1.96-8.28c1.31-2.38,3.14-4.27,5.48-5.64,2.35-1.38,5-2.07,7.98-2.07s5.74.69,8.05,2.07c2.31,1.37,4.14,3.26,5.47,5.64,1.34,2.39,2.01,5.15,2.01,8.28s-.65,5.92-1.96,8.38Z"/>
    <path d="M767.97,484.81c-3.13-1.64-6.63-2.46-10.5-2.46s-7.28.84-10.45,2.51c-2.98,1.59-5.41,3.79-7.37,6.53-1.77-2.79-4.07-5.01-6.99-6.58-3.06-1.64-6.47-2.46-10.28-2.46s-7.23.84-10.29,2.51c-2.03,1.12-3.67,2.62-5.14,4.31v-5.7h-12.29v53.64h12.29v-31.96c0-2.38.52-4.42,1.56-6.09,1.05-1.67,2.44-2.97,4.19-3.86,1.75-.89,3.74-1.34,5.97-1.34,3.28,0,6.04.98,8.28,2.96,2.23,1.97,3.35,4.75,3.35,8.33v31.96h12.3v-31.96c0-2.38.52-4.42,1.56-6.09,1.05-1.67,2.46-2.97,4.25-3.86,1.78-.89,3.76-1.34,5.92-1.34,3.27,0,6.04.98,8.27,2.96,2.24,1.97,3.36,4.75,3.36,8.33v31.96h12.29v-34.64c0-4.17-.94-7.75-2.79-10.73-1.86-2.97-4.37-5.28-7.49-6.93Z"/>
    <polygon points="611.09 467.04 598.79 467.04 598.79 483.47 585.94 483.47 585.94 494.65 598.79 494.65 598.79 537.11 611.09 537.11 611.09 494.65 623.94 494.65 623.94 483.47 611.09 483.47 611.09 467.04"/>
    <path d="M1253.16,514.09c0,3.95-.95,6.98-2.85,9.1-1.9,2.13-4.64,3.18-8.21,3.18-2.31,0-4.31-.48-5.98-1.45-1.67-.97-2.95-2.36-3.8-4.19-.85-1.83-1.28-4.04-1.28-6.65v-30.62h-12.29v31.17c0,4.62.99,8.7,2.96,12.24,1.97,3.54,4.73,6.31,8.27,8.32,3.54,2.01,7.58,3.02,12.13,3.02s8.68-.99,12.18-2.96c3.5-1.97,6.24-4.73,8.21-8.27,1.97-3.54,2.96-7.66,2.96-12.35v-31.17h-12.29v30.62Z"/>
    <path d="M1382.97,486.04c-4.25-2.46-9.01-3.68-14.3-3.68s-9.94,1.25-14.19,3.75c-4.25,2.49-7.62,5.83-10.11,9.99-2.5,4.17-3.75,8.87-3.75,14.09s1.25,9.94,3.75,14.19c2.49,4.25,5.87,7.62,10.11,10.11,4.25,2.5,8.98,3.75,14.19,3.75s10.06-1.25,14.3-3.75c4.25-2.49,7.62-5.86,10.11-10.11s3.75-8.97,3.75-14.19-1.25-9.93-3.75-14.14c-2.49-4.21-5.87-7.54-10.11-10ZM1382.24,518.56c-1.3,2.46-3.13,4.38-5.47,5.76-2.35,1.38-5.05,2.06-8.1,2.06s-5.64-.68-7.98-2.06c-2.35-1.37-4.17-3.29-5.48-5.76-1.3-2.46-1.96-5.25-1.96-8.38s.65-5.88,1.96-8.28c1.31-2.38,3.14-4.27,5.48-5.64,2.35-1.38,5-2.07,7.98-2.07s5.74.69,8.05,2.07c2.31,1.37,4.14,3.26,5.47,5.64,1.34,2.39,2.01,5.15,2.01,8.28s-.65,5.92-1.96,8.38Z"/>
    <path d="M1499.01,508.34c-2.13-1.23-4.36-2.2-6.7-2.91-2.35-.7-4.58-1.36-6.71-1.96-2.12-.59-3.86-1.3-5.19-2.12-1.35-.82-2.01-1.97-2.01-3.47s.66-2.49,2.01-3.24c1.34-.75,3.24-1.12,5.7-1.12,2.6,0,4.91.48,6.92,1.45,2.02.97,3.8,2.43,5.37,4.37l7.82-7.83c-2.23-3.05-5.01-5.34-8.32-6.87-3.32-1.53-7.14-2.29-11.46-2.29-4.09,0-7.61.67-10.56,2.01-2.94,1.35-5.21,3.24-6.81,5.7-1.61,2.46-2.41,5.4-2.41,8.83,0,3.2.67,5.8,2.02,7.82,1.34,2.01,3.07,3.59,5.19,4.75,2.13,1.16,4.36,2.06,6.7,2.74,2.35.67,4.58,1.32,6.71,1.95,2.12.64,3.86,1.4,5.19,2.29,1.34.89,2.01,2.16,2.01,3.8s-.71,2.76-2.12,3.57c-1.42.82-3.5,1.23-6.26,1.23-3.06,0-5.79-.54-8.22-1.62-2.42-1.08-4.56-2.7-6.42-4.87l-7.82,7.83c1.71,2.08,3.72,3.85,6.03,5.3,2.31,1.45,4.85,2.57,7.6,3.36,2.76.78,5.62,1.17,8.6,1.17,6.26,0,11.21-1.53,14.86-4.58,3.66-3.05,5.47-7.18,5.47-12.4,0-3.27-.66-5.94-2.01-7.98-1.34-2.06-3.07-3.69-5.19-4.92Z"/>
    <path d="M1445.88,485.43c-3.13-2.05-6.7-3.07-10.72-3.07s-7.51.91-10.68,2.74c-2.12,1.22-3.81,2.85-5.31,4.67v-6.29h-12.29v53.64h12.29v-30.96c0-2.38.53-4.5,1.57-6.37,1.04-1.86,2.49-3.32,4.36-4.36,1.86-1.05,3.98-1.56,6.37-1.56,3.57,0,6.5,1.15,8.78,3.46,2.27,2.31,3.41,5.26,3.41,8.83v30.96h12.29v-33.64c0-3.5-.89-6.87-2.68-10.11-1.78-3.24-4.25-5.88-7.37-7.93Z"/>
    <polygon points="1297.77 467.04 1285.47 467.04 1285.47 483.47 1272.62 483.47 1272.62 494.65 1285.47 494.65 1285.47 537.11 1297.77 537.11 1297.77 494.65 1310.62 494.65 1310.62 483.47 1297.77 483.47 1297.77 467.04"/>
    <path d="M1318.5,484.31v52.8h12.29v-52.8c-1.84,1-3.91,1.62-6.15,1.62s-4.31-.62-6.15-1.62Z"/>
    <circle cx="902.27" cy="473" r="6.99"/>
    <polygon points="875.39 467.04 863.09 467.04 863.09 483.47 850.24 483.47 850.24 494.65 863.09 494.65 863.09 537.11 875.39 537.11 875.39 494.65 888.24 494.65 888.24 483.47 875.39 483.47 875.39 467.04"/>
    <path d="M896.12,484.31v52.8h12.29v-52.8c-1.84,1-3.91,1.62-6.15,1.62s-4.31-.62-6.15-1.62Z"/>
    <path d="M960.52,486.04c-4.25-2.46-9.01-3.68-14.3-3.68s-9.94,1.25-14.19,3.75c-4.25,2.49-7.62,5.83-10.11,9.99-2.5,4.17-3.75,8.87-3.75,14.09s1.25,9.94,3.75,14.19c2.49,4.25,5.87,7.62,10.11,10.11,4.25,2.5,8.98,3.75,14.19,3.75s10.06-1.25,14.3-3.75c4.25-2.49,7.62-5.86,10.11-10.11,2.49-4.25,3.75-8.97,3.75-14.19s-1.26-9.93-3.75-14.14c-2.49-4.21-5.87-7.54-10.11-10ZM959.8,518.56c-1.3,2.46-3.13,4.38-5.47,5.76-2.35,1.38-5.05,2.06-8.1,2.06s-5.64-.68-7.98-2.06c-2.35-1.37-4.17-3.29-5.48-5.76-1.3-2.46-1.96-5.25-1.96-8.38s.65-5.88,1.96-8.28c1.31-2.38,3.14-4.27,5.48-5.64,2.35-1.38,5-2.07,7.98-2.07s5.74.69,8.05,2.07c2.31,1.37,4.14,3.26,5.47,5.64,1.34,2.39,2.01,5.15,2.01,8.28s-.65,5.92-1.96,8.38Z"/>
    <polygon points="1193.93 537.11 1206.22 537.11 1206.22 503.59 1206.22 467.04 1193.93 467.04 1193.93 537.11"/>
    <path d="M1023.43,485.43c-3.13-2.05-6.7-3.07-10.72-3.07s-7.51.91-10.68,2.74c-2.12,1.22-3.81,2.85-5.31,4.67v-6.29h-12.29v53.64h12.29v-30.96c0-2.38.53-4.5,1.57-6.37,1.04-1.86,2.49-3.32,4.36-4.36,1.86-1.05,3.98-1.56,6.37-1.56,3.57,0,6.5,1.15,8.78,3.46,2.27,2.31,3.41,5.26,3.41,8.83v30.96h12.29v-33.64c0-3.5-.89-6.87-2.68-10.11-1.78-3.24-4.25-5.88-7.37-7.93Z"/>
    <path d="M1114.62,502.19c-2.1-1.68-4.94-3.09-7.58-4.1-2.65-1-5.29-1.91-7.94-2.71-2.65-.8-5.06-1.66-7.27-2.55-2.19-.91-3.97-2.01-5.3-3.31-1.35-1.31-2.01-2.6-2.01-4.75,0-2.54,1.09-3.96,3.29-5.36,2.2-1.4,5.23-2.11,9.1-2.11,3.14,0,5.91.56,8.33,1.66,2.42,1.1,4.75,2.79,6.98,5.07l8.71-8.38c-2.53-2.81-5.83-5.12-9.88-6.92-4.06-1.8-8.66-2.7-13.8-2.7-4.77,0-9.08.77-12.96,2.3-3.87,1.54-6.95,3.76-9.22,6.67-2.27,2.91-3.41,6.44-3.41,10.59,0,3.61.67,6.59,2.02,8.92,1.34,2.34,3.11,4.9,5.3,6.37,2.2,1.47,4.62,2.69,7.27,3.66,2.65.97,5.29,1.84,7.93,2.61,2.65.77,5.11,1.54,7.27,2.6,6.32,3.12,7.51,5.72,7.32,8.73-.13,2.04-1.28,4.1-3.86,5.7-2.57,1.61-6.02,2.41-10.34,2.41-4.62,0-8.41-.78-11.39-2.36-2.98-1.57-5.55-3.76-7.71-6.57l-8.71,8.75c3.42,3.88,7.29,6.82,11.62,8.82,4.32,2.01,9.57,3.01,15.75,3.01,8.42,0,15.11-1.84,20.06-5.52,4.96-3.67,7.43-8.66,7.43-14.95,0-3.75-.67-6.85-2.01-9.33-1.34-2.47-2.71-4.42-4.99-6.24Z"/>
    <path d="M1169.91,486.04c-4.25-2.46-9.01-3.68-14.3-3.68s-9.94,1.25-14.19,3.75c-4.25,2.49-7.62,5.83-10.11,9.99-2.5,4.17-3.75,8.87-3.75,14.09s1.25,9.94,3.75,14.19c2.49,4.25,5.87,7.62,10.11,10.11,4.25,2.5,8.98,3.75,14.19,3.75s10.06-1.25,14.3-3.75c4.25-2.49,7.62-5.86,10.11-10.11,2.49-4.25,3.75-8.97,3.75-14.19s-1.26-9.93-3.75-14.14c-2.49-4.21-5.87-7.54-10.11-10ZM1169.18,518.56c-1.3,2.46-3.13,4.38-5.47,5.76-2.35,1.38-5.05,2.06-8.1,2.06s-5.64-.68-7.98-2.06c-2.35-1.37-4.17-3.29-5.48-5.76-1.3-2.46-1.96-5.25-1.96-8.38s.65-5.88,1.96-8.28c1.31-2.38,3.14-4.27,5.48-5.64,2.35-1.38,5-2.07,7.98-2.07s5.74.69,8.05,2.07c2.31,1.37,4.14,3.26,5.47,5.64,1.34,2.39,2.01,5.15,2.01,8.28s-.65,5.92-1.96,8.38Z"/>
    <path d="M481.54,467.04l-28.83,70.07h13.63l6.01-15.09h33.61l5.96,15.09h13.86l-28.63-70.07h-15.62ZM476.81,510.85l10.91-27.37h3.02l10.81,27.37h-24.74Z"/>
  </g>
</svg>